<?xml version="1.0" standalone="no"?>
<!DOCTYPE svg PUBLIC "-//W3C//DTD SVG 20010904//EN"
 "http://www.w3.org/TR/2001/REC-SVG-20010904/DTD/svg10.dtd">
<svg version="1.0" xmlns="http://www.w3.org/2000/svg"
 width="580.000000pt" height="580.000000pt" viewBox="0 0 580.000000 580.000000"
 preserveAspectRatio="xMidYMid meet">
<metadata>
Created by potrace 1.11, written by Peter Selinger 2001-2013
</metadata>
<g transform="translate(0.000000,580.000000) scale(0.100000,-0.100000)"
fill="#000000" stroke="none">
<path d="M2661 5769 c-1309 -108 -2388 -1103 -2601 -2400 -128 -778 69 -1577
543 -2204 461 -609 1133 -1005 1901 -1117 198 -29 576 -31 761 -5 661 95 1216
368 1670 822 454 454 727 1009 822 1670 26 185 24 563 -5 761 -133 908 -653
1667 -1454 2121 -479 271 -1070 398 -1637 352z m719 -1283 c394 -64 662 -188
880 -406 199 -198 322 -440 385 -754 134 -672 -32 -1293 -440 -1647 -179 -155
-423 -276 -675 -333 -214 -49 -214 -49 -1137 -53 l-873 -4 0 210 0 211 227 0
226 0 -6 818 c-4 449 -7 987 -7 1195 l0 377 -220 0 -220 0 0 206 0 205 878 -4
c769 -3 890 -5 982 -21z"/>
<path d="M2460 2905 l0 -1185 233 0 c799 0 1144 136 1341 527 78 156 115 343
123 624 9 309 -23 497 -117 684 -86 171 -197 286 -360 373 -225 120 -472 162
-962 162 l-258 0 0 -1185z"/>
</g>
</svg>
